<svg id="Layer_1" data-name="Layer 1" xmlns="http://www.w3.org/2000/svg" viewBox="0 0 336.15 399.19"><defs><style>.cls-1{fill:#009245;}.cls-2{fill:#fac2b0;}.cls-3{fill:#2e3192;}.cls-4{fill:#c1272d;}.cls-5{fill:#5c3d19;}.cls-6{fill:#39b54a;}.cls-7{fill:#6b461b;}.cls-8{fill:#f9c0af;}.cls-9{fill:#1b1464;}.cls-10{fill:#42210b;}.cls-11{fill:#4d67af;}.cls-12{fill:#3d56a5;}.cls-13{fill:#543631;}.cls-14{fill:#f41c25;}.cls-15{fill:#0150c1;}.cls-16{fill:#3482fd;}.cls-17{fill:#95cafc;}.cls-18,.cls-19{fill:#fff;}.cls-18{opacity:0.4;}.cls-20{fill:#003c82;}.cls-21{opacity:0.2;}.cls-22{fill:#4f3116;}.cls-23{fill:#5e3a18;}.cls-24{fill:#f1baa9;}.cls-25{fill:#00a99d;}.cls-26{fill:#3e1f10;}</style></defs><path class="cls-1" d="M637.75,439.11S632,441.32,624,471.92c0,0-10.58,12.58-14.84,20.14,0,0,3.57,4,4.26,6.56,0,0,16.77-17.14,19-20.72s8.53-20.37,9.42-25.37S642.26,437.84,637.75,439.11Z" transform="translate(-389.67 -344.75)"/><path class="cls-2" d="M609.19,492.06s-10.11.95-9.65,2.41,5.25,1.33,5.25,1.33-6.6,3.65-6.65,4.64,2.7,6.36,6.23,5.1,9.08-6.92,9.08-6.92S613,495.57,609.19,492.06Z" transform="translate(-389.67 -344.75)"/><path class="cls-2" d="M623.57,622.91c1.34,2.68,11,2.2,18.31-8.78l.7,6.63h1.34v-8a4.85,4.85,0,0,0,.32-4.18,6.53,6.53,0,0,1-.45-1.56,41.56,41.56,0,0,1-.44-6.55h-8.83s.3,6-.72,7.95c-.5.94-3.26,3.77-5.8,6.74S622.88,621.54,623.57,622.91Z" transform="translate(-389.67 -344.75)"/><path class="cls-3" d="M623.57,622.91c1.34,2.68,11,2.2,18.31-8.78l.7,6.63h1.34v-8a4.85,4.85,0,0,0,.32-4.18,6.53,6.53,0,0,1-.45-1.56,8.54,8.54,0,0,0-3.23,2.51c-.92,1.48-5.71,10.3-10.92,8.47a2.6,2.6,0,0,1-1.64-2.84C625.33,618.26,622.88,621.54,623.57,622.91Z" transform="translate(-389.67 -344.75)"/><path class="cls-4" d="M631.93,501.12s-2.08,20.39-1.92,30.23,2.34,23.49,2.51,27.44,2,41.66,2,41.66,6,2.34,8.83,0c0,0,5-27,3-43.23L648.14,503Z" transform="translate(-389.67 -344.75)"/><path class="cls-2" d="M654.43,632.12c5.42,2.32,8.52-11.36,8.52-11.36-.24-3-.58-5.66-.58-5.66-3.26,1.2-8.55,0-8.55,0s1.15,4.8.75,6.14c-.08.29-.61,1.4-1.28,3C652,630.81,654.43,632.12,654.43,632.12Z" transform="translate(-389.67 -344.75)"/><path class="cls-3" d="M653.15,641.61c8.77.08,9.87-11.6,10-15.15a55.13,55.13,0,0,0-.23-5.7s-3.1,13.68-8.52,11.36c0,0-2.39-1.31-1.14-7.92C650.81,629.88,646.27,641.55,653.15,641.61Z" transform="translate(-389.67 -344.75)"/><path class="cls-4" d="M665.13,503.55s2.68,12.89,1.15,22.81-5.91,31.8-5.91,31.8,3.87,13.34,3.19,19-1.88,15.39-2,20.52.86,17.44.86,17.44-4.75,3.37-8.55,0c0,0-7.7-46.34-8.55-55.32S643.39,501,643.39,501Z" transform="translate(-389.67 -344.75)"/><path class="cls-5" d="M660.57,405.74s1.38-4.08,4.94-4.08,7.37,4.25,6.59,10.23-2.34,10.15-2,14.22,4.34,13.44-5.11,26a10,10,0,0,1-2.52-5.55c-.34-3.38.78-11.7.87-16.65S659.44,411.29,660.57,405.74Z" transform="translate(-389.67 -344.75)"/><path class="cls-2" d="M639.45,407.09s-3.6,12.45,2.57,23.44c0,0,7.1,1.23,10.84-4.78s3.8-16.09,0-19.53S639.45,407.09,639.45,407.09Z" transform="translate(-389.67 -344.75)"/><path class="cls-2" d="M657,429.13l-.8,12.87a11,11,0,0,1-12.83,3.26,12.29,12.29,0,0,1,2.81-6.6s.35-8.17-1.94-11.25l11.78-6Z" transform="translate(-389.67 -344.75)"/><path class="cls-6" d="M656.28,440.42s-7.72,4.85-11.88,3.87c0,0,.57-4.89,1.76-5.63,0,0-6.07-.82-7.76,0s-5.38,5.86-7.06,13.78.46,16.93,1,19.3-.27,20.32-.45,29.38c0,0,16.79,8,33.2,2.43,0,0,7.14-47.49,5.4-51.73S656.28,440.42,656.28,440.42Z" transform="translate(-389.67 -344.75)"/><path class="cls-7" d="M654.61,419.93s-4.6,2.15-5.45-2.35,1.34-7-1.12-8.87-3.31.42-8.59-1.62c0,0,3.37-9.72,18.37-5.71s5.78,27.18-.84,27.75Z" transform="translate(-389.67 -344.75)"/><path class="cls-2" d="M652.86,420.48s2.22-5.07,4.66-2.94-1.32,7.7-4.66,8.21Z" transform="translate(-389.67 -344.75)"/><path class="cls-1" d="M662.6,469c1.91,8,5.09,11.59,4.33,17.07-.3,2.18-.89,7.89-1.49,14a16.9,16.9,0,0,1,8.9,3c1.64-7,2.92-13.22,3-16,.26-5.86-3.32-25.74-4.34-31.1s-4.84-8.6-9.17-7.42C658.73,449.92,660.68,460.92,662.6,469Z" transform="translate(-389.67 -344.75)"/><path class="cls-8" d="M654.57,524.5c1,1.92,6.19,0,6.19,0s-6,9.82-5.25,11.22,10,2.93,13.08-9.3c1.62-6.48,3.91-15.48,5.75-23.4a16.9,16.9,0,0,0-8.9-3c-.9,9.25-1.82,19.39-1.82,19.39S653.55,522.6,654.57,524.5Z" transform="translate(-389.67 -344.75)"/><path class="cls-9" d="M548.89,515.57c.6,6.45,6.24,43.72,3.82,49a7.19,7.19,0,0,1-1.12,1.65c7.17,1.25,11.57.57,14.14-.37-.17-.62-.35-1.25-.53-1.89-1.41-5.24,4-26.4,5.25-34.25a15.83,15.83,0,0,0-4.36-13.09c2.64-8.31-1.72-34.44-1.88-35.44.36,1.05,11.91,34.5,13.49,39.46s16.12,35.06,20.36,41.1a7.18,7.18,0,0,1,1.19,6.56c7.35.18,10.49-4.72,11.73-7.82-.2-.31-.42-.62-.65-1-4-5.84-6-20.75-6.84-28.81S594.22,514,594.22,514s-1.41-24.59-3.12-37.88-5.49-15.43-5.49-15.43l-39.43-6.84C540.66,466.4,548.28,509.12,548.89,515.57Z" transform="translate(-389.67 -344.75)"/><path class="cls-10" d="M591.72,591.52c11,3,12.77-11.28,15.49-14.71S612.55,573,614,570s.51-4.46-3-9.53c-1.24,3.1-4.38,8-11.73,7.82-.83,2.81-3.06,4.94-3.42,6.14C595.22,576.42,580.72,588.5,591.72,591.52Z" transform="translate(-389.67 -344.75)"/><path class="cls-10" d="M534,577.62c7.25,5,14.5.41,18.13-1.41s4.84.6,10.64-1c5.08-1.41,4.22-5,3-9.39-2.57.94-7,1.62-14.14.37C547.17,571.26,534,577.62,534,577.62Z" transform="translate(-389.67 -344.75)"/><path class="cls-11" d="M530.87,429.06a17.12,17.12,0,0,1,8.34,8.54,30.38,30.38,0,0,0,6-5c3.22-4.29,3.7-26.81,4.53-33.67s.19-15-4.53-14.15c-5.71,1-7.93,13.51-7.93,17.8s-.68,19.16-4.11,23.45C532.52,426.91,531.74,428,530.87,429.06Z" transform="translate(-389.67 -344.75)"/><path class="cls-2" d="M497.85,453.22c.43,1.93,9.86,7.94,13.51,3.87s10.18-8.58,10.18-8.58,10.53-5.95,17.67-10.91a17.12,17.12,0,0,0-8.34-8.54c-3.55,4.54-8.65,10.49-14.84,11.53-7.72,1.28-13.68-.88-14.33,1.49s7.09,3.43,7.09,3.43S497.42,451.29,497.85,453.22Z" transform="translate(-389.67 -344.75)"/><path class="cls-12" d="M567.51,378.45c-6-1.22-20.75,2.77-24.29,6.19s-3.54,23.12-.77,30.85.45,33.76,2.51,37,21.58,17,40.65,8.18c0,0,8-3.61,5.67-13.2s-3.16-52.89-5.61-57S575,380,567.51,378.45Z" transform="translate(-389.67 -344.75)"/><path class="cls-11" d="M576.5,405c2.58,4.3,15.76,22,15.22,26.62-.21,1.72-1.78,5.35-3.85,9.31a18.66,18.66,0,0,1,10.19,5.66c4.7-5.66,8.85-11.32,9.13-13.73.62-5.27-13.55-31.35-16.57-35.1s-5.28-10.31-10.06-7.73C574.26,393.38,573.93,400.66,576.5,405Z" transform="translate(-389.67 -344.75)"/><path class="cls-2" d="M574.29,473.08c3.07-2.46,7.37-9.47,10.19-11.73a173.61,173.61,0,0,0,13.58-14.8,18.66,18.66,0,0,0-10.19-5.66c-3.57,6.84-8.61,14.64-10.62,15.25-3.2,1-9.43-1.35-10.43.49s6.12,4.06,6.12,4.06-9.81,5.27-10.18,7.72S571.22,475.54,574.29,473.08Z" transform="translate(-389.67 -344.75)"/><path class="cls-2" d="M565.63,350.06c-7.79-.41-14.38.43-15,6.58s-3,21.09,4.55,23.14,15.7-5,15.91-16.74S565.63,350.06,565.63,350.06Z" transform="translate(-389.67 -344.75)"/><path class="cls-13" d="M571.65,367.46s-5.29-4.42-5.29-10.08c0,0-16.43,3.36-18.61-9.52a26.34,26.34,0,0,0,11.33-1.74c6.35-2.37,15.06-2.12,15.12,4.35,0,0,5,1.43,5,7.9a17,17,0,0,1-7.09,13.82Z" transform="translate(-389.67 -344.75)"/><path class="cls-2" d="M572.71,367.05V381.4a10.66,10.66,0,0,1-13.13,4.73,5.44,5.44,0,0,1-2.43-3.74c-.14-2.29,0-11.45,0-11.45Z" transform="translate(-389.67 -344.75)"/><path class="cls-2" d="M568.91,366.59s2.68-4.67,6.16-2.62.31,7.84-6.16,6.48Z" transform="translate(-389.67 -344.75)"/><g id="Glass"><path class="cls-14" d="M405.34,602.82v30.43c0,16.52,10.92,33,32.75,45.64,43.66,25.21,114.46,25.21,158.12,0C618,666.29,629,649.77,629,633.25V602.82h0c0-16.52-10.92-33-32.75-45.65-43.66-25.21-114.46-25.21-158.12,0-21.83,12.61-32.75,29.13-32.75,45.65Zm212.8,0c0,13.21-9.71,26.1-27.34,36.28-19.5,11.26-45.65,17.46-73.65,17.46S463,650.36,443.5,639.1c-17.63-10.18-27.34-23.07-27.34-36.28s9.71-26.11,27.34-36.28c19.5-11.26,45.65-17.46,73.65-17.46s54.16,6.2,73.65,17.46C608.44,576.71,618.14,589.6,618.14,602.82Z" transform="translate(-389.67 -344.75)"/><path class="cls-15" d="M405.34,602.82v30.43c0,16.52,10.92,33,32.75,45.64,43.66,25.21,114.46,25.21,158.12,0C618,666.29,629,649.77,629,633.25V602.82h0c0-16.52-10.92-33-32.75-45.65-43.66-25.21-114.46-25.21-158.12,0-21.83,12.61-32.75,29.13-32.75,45.65Zm212.8,0c0,13.21-9.71,26.1-27.34,36.28-19.5,11.26-45.65,17.46-73.65,17.46S463,650.36,443.5,639.1c-17.63-10.18-27.34-23.07-27.34-36.28s9.71-26.11,27.34-36.28c19.5-11.26,45.65-17.46,73.65-17.46s54.16,6.2,73.65,17.46C608.44,576.71,618.14,589.6,618.14,602.82Z" transform="translate(-389.67 -344.75)"/><path class="cls-16" d="M628.85,636.09c-1.74,10.46-6.35,18.34-24.92,32.84-26.25,20.5-92.72,28.87-131.3,16.13-36.39-12-48-35.48-48-51.59l.1-9.47c-5.62-6.69-8.58-13.89-8.58-21.18,0-7.48,3.11-14.85,9-21.69l.13-13.33h-2.08c-11.91,10.62-17.87,22.82-17.87,35v30.43c0,16.52,10.92,33,32.75,45.64,43.66,25.21,114.46,25.21,158.12,0C616.79,667,627.67,651.65,628.85,636.09Z" transform="translate(-389.67 -344.75)"/><path class="cls-14" d="M596.22,557.17C552.55,532,481.76,532,438.1,557.17s-43.67,66.08,0,91.29,114.45,25.21,158.12,0S639.88,582.38,596.22,557.17Zm-5.41,81.93c-19.5,11.26-45.66,17.46-73.65,17.46S463,650.36,443.5,639.1c-17.63-10.18-27.34-23.07-27.34-36.28s9.71-26.11,27.34-36.28c19.5-11.26,45.66-17.46,73.66-17.46s54.15,6.2,73.65,17.46c17.63,10.17,27.34,23.06,27.34,36.28S608.44,628.92,590.81,639.1Z" transform="translate(-389.67 -344.75)"/><path class="cls-17" d="M596.22,557.17C552.55,532,481.76,532,438.1,557.17s-43.67,66.08,0,91.29,114.45,25.21,158.12,0S639.88,582.38,596.22,557.17Zm-5.41,81.93c-19.5,11.26-45.66,17.46-73.65,17.46S463,650.36,443.5,639.1c-17.63-10.18-27.34-23.07-27.34-36.28s9.71-26.11,27.34-36.28c19.5-11.26,45.66-17.46,73.66-17.46s54.15,6.2,73.65,17.46c17.63,10.17,27.34,23.06,27.34,36.28S608.44,628.92,590.81,639.1Z" transform="translate(-389.67 -344.75)"/><path class="cls-14" d="M618.16,602.81A30,30,0,0,1,613.79,618c-4.43-7.68-12.24-14.88-23-21.06-19.48-11.27-45.65-17.48-73.65-17.48S463,585.71,443.51,597c-10.75,6.18-18.55,13.38-23,21.06a30.24,30.24,0,0,1-4.34-15.23c0-13.21,9.71-26.1,27.35-36.28,19.49-11.25,45.65-17.45,73.64-17.45s54.17,6.2,73.65,17.45C608.45,576.71,618.16,589.6,618.16,602.81Z" transform="translate(-389.67 -344.75)"/><path class="cls-16" d="M618.16,602.81A30,30,0,0,1,613.79,618c-4.43-7.68-12.24-14.88-23-21.06-19.48-11.27-45.65-17.48-73.65-17.48S463,585.71,443.51,597c-10.75,6.18-18.55,13.38-23,21.06a30.24,30.24,0,0,1-4.34-15.23c0-13.21,9.71-26.1,27.35-36.28,19.49-11.25,45.65-17.45,73.64-17.45s54.17,6.2,73.65,17.45C608.45,576.71,618.16,589.6,618.16,602.81Z" transform="translate(-389.67 -344.75)"/><path class="cls-15" d="M443.51,566.53c-17.64,10.18-27.35,23.07-27.35,36.28A30.24,30.24,0,0,0,420.5,618c4.46-7.68,12.26-14.88,23-21.06a109.82,109.82,0,0,1,14.12-6.81c-4.26,1.65-17.34,5.85-12.57-6.61,5.67-14.82,33.34-30.85,53.67-33.52v0C477.82,552.11,458.65,557.79,443.51,566.53Z" transform="translate(-389.67 -344.75)"/><path class="cls-18" d="M590.81,580.31c-19.5-11.25-45.66-17.45-73.65-17.45s-54.16,6.2-73.66,17.45c-14.54,8.4-23.68,18.65-26.44,29.4,2.76,10.75,11.9,21,26.44,29.39,19.5,11.26,45.66,17.46,73.66,17.46s54.15-6.2,73.65-17.46c14.55-8.4,23.69-18.64,26.44-29.39C614.5,599,605.36,588.71,590.81,580.31Z" transform="translate(-389.67 -344.75)"/><path class="cls-19" d="M436,616.68c6.25,4.9,13.34,8,20.57,10.46a147,147,0,0,0,22.21,5.48,219.18,219.18,0,0,0,45.56,2.6c7.61-.33,15.23-1,22.8-2.07a187.33,187.33,0,0,0,22.39-4.41,96.4,96.4,0,0,0,21.13-8,52.12,52.12,0,0,0,4.8-2.93,37.93,37.93,0,0,0,4.39-3.51,24.73,24.73,0,0,0,3.69-4.27,18.22,18.22,0,0,0,2.49-5.22,16.78,16.78,0,0,1-1,6,26,26,0,0,1-2.86,5.48,31.83,31.83,0,0,1-3.92,4.8,46.1,46.1,0,0,1-4.59,4.15,82.14,82.14,0,0,1-21.43,11.77,138,138,0,0,1-23.37,6.51,174.09,174.09,0,0,1-24,2.84,153.12,153.12,0,0,1-48-5.11,107,107,0,0,1-22.51-9,69,69,0,0,1-10.1-6.73c-.79-.63-1.53-1.33-2.3-2s-1.47-1.37-2.16-2.11A34.87,34.87,0,0,1,436,616.68Z" transform="translate(-389.67 -344.75)"/><path class="cls-15" d="M592.89,667.83a17.32,17.32,0,0,1,7.78-13.6c2.14-1.25,4.09-1.38,5.51-.58h0l24.92,14.25h0c1.41.82,2.29,2.56,2.3,5.05a17.35,17.35,0,0,1-7.78,13.6c-2.16,1.26-4.12,1.38-5.54.57h0l-24.91-14.24h0C593.79,672.1,592.9,670.34,592.89,667.83Z" transform="translate(-389.67 -344.75)"/><path class="cls-20" d="M595.22,672.9c-1.43-.8-2.32-2.56-2.33-5.07a14.72,14.72,0,0,1,1.33-5.86L630,682.49a14.86,14.86,0,0,1-4.35,4.09c-2.16,1.26-4.12,1.38-5.54.57l-24.91-14.24Z" transform="translate(-389.67 -344.75)"/><path class="cls-15" d="M716,708.44h0l0,0L636.65,668h0l-.1,0h0c-1.84-1-4.34-.82-7.09.79-5.62,3.27-10.15,11.2-10.12,17.7,0,3.26,1.17,5.54,3,6.59l74.54,48h0A18.9,18.9,0,1,0,716,708.44Z" transform="translate(-389.67 -344.75)"/><path class="cls-20" d="M622.34,693.06l74.54,48a18.88,18.88,0,0,0,28.88-14.79c-1.43,6.2-11.69,11.48-24.41,4.37s-59.84-36.88-81.25-49.21a17.43,17.43,0,0,0-.78,5.05C619.33,689.73,620.49,692,622.34,693.06Z" transform="translate(-389.67 -344.75)"/><path class="cls-17" d="M622.34,693.06c-1.85-1-3-3.33-3-6.59,0-6.5,4.5-14.43,10.12-17.7,2.75-1.61,5.25-1.78,7.09-.79l7,3.56c-1.89-1-4.45-.84-7.27.81-5.76,3.36-10.41,11.48-10.38,18.15,0,3.35,1.15,5.74,3.05,6.82" transform="translate(-389.67 -344.75)"/><path class="cls-21" d="M629,697.32c-1.9-1.08-3-3.48-3.05-6.82a18,18,0,0,1,.81-5.21c-2.39-1.42-4.62-2.72-6.61-3.87a19.69,19.69,0,0,0-.59,2.56c-.06.42-.11.84-.15,1.25s-.05.83,0,1.24c0,3.26,1.17,5.54,3,6.59Z" transform="translate(-389.67 -344.75)"/></g><path d="M390.51,700.11s-1.6,8.7-.39,9.47,8.55,2.08,11.58-.34,14.19-10,12.68-12.47a4.94,4.94,0,0,0-5.68-2.39C406.8,694.81,390.51,700.11,390.51,700.11Z" transform="translate(-389.67 -344.75)"/><path d="M415.16,712.15s-2.63,8,0,9.7,28.36-7.36,27.41-14c0,0-.48-2-4.32-1.53s-10.7,1.75-16.17,1.31Z" transform="translate(-389.67 -344.75)"/><path class="cls-22" d="M399.49,595.58s-3.24,26.69-2,44.78c0,0-4.74,9.86-5.49,16.34s-1.5,43.41-1.5,43.41,7.24,4.24,11.35-1.5c0,0,8.61-46.27,10-52.89s9.12-44.4,9.12-44.4Z" transform="translate(-389.67 -344.75)"/><path class="cls-23" d="M438.12,584.61s1.54,39.55-6,68.06c0,0-4.42,50.38-5.52,55.47,0,0-1.77,7.29-12.16,4.86,0,0-3.53-49.06,2-57.46,0,0-4.86-58.56-1.33-69.83C415.13,585.71,429.72,588.14,438.12,584.61Z" transform="translate(-389.67 -344.75)"/><path class="cls-24" d="M452.72,536.09s.81-8,2.52-8.28,1.27,5.89,1.27,5.89,9.73-5.14,10.91-3.45.58,8.16-.81,10.1-8.25,2.82-13.89,3Z" transform="translate(-389.67 -344.75)"/><path class="cls-25" d="M441.45,536.09l.55,9,8.95-1.49c.2-1.71.5-5.47-.39-7.53Z" transform="translate(-389.67 -344.75)"/><path class="cls-25" d="M451,543.62l1.77-.29a16.27,16.27,0,0,0,0-7.24h-2.16C451.45,538.15,451.15,541.91,451,543.62Z" transform="translate(-389.67 -344.75)"/><path class="cls-2" d="M413.45,481.37c3.6-3.91,10.75-4.3,13.93-2.77s6.75,6.45,8,10.85,2.66,14.34.62,15.77-10.45,2.25-15.67-2S411,484,413.45,481.37Z" transform="translate(-389.67 -344.75)"/><path class="cls-2" d="M430.37,504.18l-1.65,12s-10.05-3.11-14.16-3.24l.8-8.07S423,502.39,430.37,504.18Z" transform="translate(-389.67 -344.75)"/><path class="cls-25" d="M433.38,519.38v-2.73s-6.33-4.49-13-5.61-8.66-.68-8.66-.68l-.85,3.32A97.19,97.19,0,0,1,433.38,519.38Z" transform="translate(-389.67 -344.75)"/><path class="cls-25" d="M420.16,514.31c6.08,1.56,19.3,5.58,23.78,15.28s-4.64,24.91-5,40.11,0,24.16-.92,40.3c0,0-.09,1.21-3.25,1.83l-3.63-20.09-1.85,19.47s-20-1.17-30-15.21c0,0,3.4-17.37,3.33-27.07s-12.05-45.86-.62-56C401.94,512.91,406.88,510.89,420.16,514.31Z" transform="translate(-389.67 -344.75)"/><path class="cls-26" d="M429,494.14a6.31,6.31,0,0,0-.59-5.23c-1.28-2.24-1.07-4.43.91-6s2.56-6.08-.27-7.47-9.12-2.51-13-.32-8.27,7.21-9.23,12.6,3.68,17,8.54,19c0,0,7.84-.05,10.51-5.33,0,0,.64-4.91,1.23-5.61A13.71,13.71,0,0,1,429,494.14Z" transform="translate(-389.67 -344.75)"/><path class="cls-2" d="M429.92,494s-2.4-4.85-5.28-2.61,1.49,8.43,5.28,7.57Z" transform="translate(-389.67 -344.75)"/><path class="cls-2" d="M458,533.7s-3-16.21-1.76-16.71,5.26,6.69,5.26,6.69,1.63-5.44,1.38-8-2.32-6-1.07-6.82,3.26,3.13,4.64,7.64,1.66,12.28-1.64,20Z" transform="translate(-389.67 -344.75)"/><path class="cls-25" d="M457,535.64l1-1.94s4.2.1,6.81,2.76l-.32,2Z" transform="translate(-389.67 -344.75)"/><path class="cls-25" d="M436,528.05c-5.59,1.31-5.37,7.09-4.15,14s5.67,36.88,15.19,32.22,17.43-35.77,17.43-35.77-3.55-3.34-7.5-2.84l-7.6,16.82s-3.37-14-4.22-17.93S441.19,526.83,436,528.05Z" transform="translate(-389.67 -344.75)"/><path class="cls-25" d="M422.62,610.15s8.86,2.3,12.62,1.58S432,591,432,591l-7,1Z" transform="translate(-389.67 -344.75)"/></svg>